<?xml version="1.0" standalone="no"?>
<!DOCTYPE svg PUBLIC "-//W3C//DTD SVG 20010904//EN"
 "http://www.w3.org/TR/2001/REC-SVG-20010904/DTD/svg10.dtd">
<svg version="1.0" xmlns="http://www.w3.org/2000/svg"
 width="640.000000pt" height="640.000000pt" viewBox="0 0 640.000000 640.000000"
 preserveAspectRatio="xMidYMid meet">
<metadata>
Created by potrace 1.11, written by Peter Selinger 2001-2013
</metadata>
<g transform="translate(0.000000,640.000000) scale(0.100000,-0.100000)"
fill="#000000" stroke="none">
<path d="M3000 6154 c-309 -27 -637 -105 -895 -213 -89 -38 -355 -174 -420
-214 -102 -65 -245 -169 -245 -179 0 -5 -5 -8 -11 -8 -41 0 -419 -372 -509
-500 -13 -19 -29 -39 -35 -45 -28 -24 -127 -184 -121 -194 4 -6 2 -9 -6 -6 -8
3 -29 -26 -58 -82 -25 -49 -48 -90 -51 -93 -4 -3 -21 -34 -38 -70 -18 -36 -37
-73 -42 -82 -16 -30 -100 -241 -119 -298 -54 -165 -90 -314 -127 -535 -13 -78
-17 -164 -17 -385 0 -251 2 -302 23 -430 28 -172 58 -312 96 -435 34 -112 135
-369 146 -373 5 -2 9 -10 9 -17 0 -27 114 -233 205 -370 256 -386 576 -686
995 -932 47 -27 112 -62 145 -77 33 -16 74 -35 90 -43 39 -19 110 -48 210 -85
421 -157 913 -212 1360 -153 407 53 816 193 1132 388 46 29 92 57 101 62 139
83 445 337 507 422 17 23 38 43 49 46 12 4 16 11 12 22 -3 9 -2 14 3 11 9 -6
74 66 148 164 23 30 46 60 50 65 29 37 133 195 133 200 0 4 9 19 19 34 27 37
140 261 178 351 213 504 280 1043 197 1585 -30 197 -102 465 -164 610 -5 11
-27 64 -50 118 -34 81 -108 227 -155 305 -6 9 -23 39 -39 65 -16 27 -48 78
-73 114 -38 58 -58 84 -138 182 -57 70 -197 223 -249 271 -33 30 -67 62 -76
70 -26 25 -112 96 -155 129 -22 17 -44 34 -50 39 -5 4 -53 37 -105 72 -52 35
-108 72 -124 83 -60 41 -297 156 -431 209 -248 99 -481 160 -722 189 -89 11
-500 20 -583 13z m485 -134 c192 -18 427 -67 625 -131 109 -36 337 -132 392
-166 21 -13 40 -23 43 -23 3 0 51 -27 106 -60 55 -34 104 -58 110 -55 5 4 8 2
7 -3 -2 -6 33 -36 77 -69 152 -110 219 -167 355 -303 123 -123 164 -169 239
-269 60 -79 151 -211 151 -218 0 -2 17 -30 38 -61 52 -79 202 -387 202 -416 0
-6 7 -23 15 -39 22 -43 92 -282 114 -392 42 -213 55 -344 56 -565 0 -125 -6
-259 -14 -320 -14 -110 -65 -384 -81 -435 -5 -16 -21 -68 -35 -115 -15 -47
-30 -94 -35 -105 -20 -45 -62 -151 -68 -170 -3 -11 -9 -24 -14 -30 -5 -5 -31
-55 -58 -110 -27 -55 -54 -107 -60 -115 -5 -8 -31 -51 -58 -95 -129 -214 -361
-480 -570 -652 -59 -49 -117 -95 -128 -103 -155 -107 -217 -147 -316 -204 -65
-36 -128 -70 -140 -75 -13 -5 -48 -20 -78 -34 -205 -94 -426 -158 -735 -214
-142 -25 -628 -26 -795 0 -521 79 -991 286 -1384 610 -142 117 -332 314 -439
454 -29 37 -54 70 -57 73 -3 3 -9 12 -15 21 -5 9 -28 43 -49 75 -297 448 -457
982 -456 1528 1 197 34 501 70 636 5 19 19 73 30 119 32 123 132 385 194 503
57 111 70 134 130 229 22 34 39 68 39 76 0 7 8 15 17 18 9 3 22 17 29 31 36
79 354 426 495 539 27 22 59 48 70 58 78 67 396 266 487 305 24 11 64 28 89
40 266 121 598 207 905 235 91 8 398 6 500 -3z m-1908 -406 c-3 -3 -12 -4 -19
-1 -8 3 -5 6 6 6 11 1 17 -2 13 -5z m-63 -39 c-4 -8 -11 -15 -16 -15 -6 0 -5
6 2 15 7 8 14 15 16 15 2 0 1 -7 -2 -15z m-227 -227 c-3 -8 -6 -5 -6 6 -1 11
2 17 5 13 3 -3 4 -12 1 -19z m4423 -698 c0 -5 -5 -10 -11 -10 -5 0 -7 5 -4 10
3 6 8 10 11 10 2 0 4 -4 4 -10z m147 -302 c-3 -8 -6 -5 -6 6 -1 11 2 17 5 13
3 -3 4 -12 1 -19z m-5340 -80 c-3 -8 -6 -5 -6 6 -1 11 2 17 5 13 3 -3 4 -12 1
-19z m5415 -30 c-6 -6 -7 0 -4 19 5 21 7 23 10 9 2 -10 0 -22 -6 -28z m85
-330 c-3 -8 -6 -5 -6 6 -1 11 2 17 5 13 3 -3 4 -12 1 -19z m80 -260 c-3 -8 -6
-5 -6 6 -1 11 2 17 5 13 3 -3 4 -12 1 -19z m-80 -1100 c-3 -8 -6 -5 -6 6 -1
11 2 17 5 13 3 -3 4 -12 1 -19z m-444 -873 c-3 -9 -8 -14 -10 -11 -3 3 -2 9 2
15 9 16 15 13 8 -4z"/>
<path d="M2950 5859 c-414 -43 -826 -190 -1169 -417 -227 -150 -434 -335 -588
-525 -32 -40 -61 -74 -64 -77 -4 -3 -36 -48 -71 -100 -256 -374 -402 -766
-454 -1216 -18 -153 -15 -503 6 -644 83 -567 333 -1075 726 -1476 184 -187
304 -284 507 -410 740 -459 1676 -518 2467 -155 235 108 477 263 650 416 169
150 366 381 490 575 66 104 178 318 208 395 75 198 94 259 131 415 93 397 88
858 -14 1254 -272 1059 -1172 1840 -2259 1961 -141 16 -429 18 -566 4z m239
-206 c16 -32 36 -82 44 -110 l16 -53 -77 0 c-77 0 -78 0 -96 32 l-19 31 -14
-36 c-8 -20 -22 -38 -31 -41 -73 -19 -123 -29 -128 -23 -8 8 31 182 49 217 11
22 20 26 87 31 152 11 136 16 169 -48z m439 36 c40 -7 76 -17 81 -23 5 -6 23
-67 40 -135 18 -69 34 -127 36 -130 6 -5 -3 -16 90 109 43 58 80 107 81 109 3
3 54 -5 157 -25 15 -3 27 -11 27 -18 0 -14 -193 -235 -247 -284 -26 -23 -42
-30 -57 -26 -19 6 -20 5 -6 -11 14 -17 14 -17 -7 -5 -12 8 -21 19 -20 24 1 6
-8 15 -20 21 -13 5 -23 15 -23 22 0 15 -31 32 -48 26 -7 -3 -11 1 -10 7 2 7
-3 15 -11 18 -9 3 -11 0 -6 -8 6 -9 3 -9 -15 0 -18 10 -20 14 -9 22 10 7 8 8
-8 5 -12 -3 -22 -2 -21 2 1 3 -12 35 -29 71 -34 74 -83 212 -83 236 0 10 6 14
18 10 9 -2 50 -10 90 -17z m-1217 -182 c68 -45 96 -134 64 -197 -15 -30 -15
-30 13 -30 15 0 36 -6 45 -12 14 -12 10 -19 -34 -67 l-50 -54 -35 16 c-42 20
-45 21 -38 4 3 -9 -10 -20 -36 -32 -23 -10 -43 -22 -46 -26 -2 -4 7 -33 20
-63 18 -40 29 -54 39 -50 12 4 11 -8 -6 -64 -17 -53 -31 -76 -61 -103 l-39
-34 -16 24 c-9 13 -75 141 -147 283 -129 255 -131 259 -110 273 11 7 84 45
161 84 161 81 214 90 276 48z m2102 -113 c89 -51 168 -97 175 -101 11 -7 9
-19 -12 -66 -13 -31 -30 -57 -36 -57 -6 0 -59 27 -118 60 -59 33 -112 60 -118
60 -11 0 -54 -70 -54 -88 0 -6 45 -36 100 -68 55 -31 103 -60 106 -65 5 -9
-43 -99 -59 -110 -6 -4 -33 7 -61 24 -87 51 -154 87 -163 87 -10 0 -59 -98
-52 -103 13 -10 128 -77 132 -77 19 0 97 -57 97 -71 0 -14 -57 -109 -65 -109
-26 0 -325 199 -325 217 0 8 -4 12 -9 8 -18 -11 -23 59 -7 97 17 39 240 434
258 456 15 18 31 11 211 -94z m-1073 36 c187 -54 342 -156 447 -295 43 -57
108 -183 99 -192 -2 -2 -44 19 -92 47 -81 46 -89 53 -85 78 3 27 3 27 -18 8
-18 -16 -25 -17 -46 -8 -14 7 -28 20 -32 29 -30 90 -116 223 -144 223 -14 0
-12 -5 27 -52 38 -45 102 -164 93 -172 -3 -3 -36 5 -75 18 -38 13 -85 27 -104
31 -19 4 -43 19 -54 34 -38 50 -171 182 -174 173 -1 -5 10 -35 26 -68 16 -32
33 -69 36 -81 7 -21 5 -22 -41 -17 -26 3 -122 1 -212 -5 -160 -10 -165 -9
-228 14 -36 13 -70 28 -75 33 -6 6 12 32 48 71 31 34 53 65 49 69 -4 4 -35
-23 -69 -59 l-62 -67 -35 19 c-34 17 -66 46 -58 53 19 16 146 78 194 95 120
43 181 51 350 47 126 -3 176 -9 235 -26z m310 -110 c0 -5 -2 -10 -4 -10 -3 0
-8 5 -11 10 -3 6 -1 10 4 10 6 0 11 -4 11 -10z m-1076 -92 l39 -62 -26 -46
c-22 -37 -31 -45 -53 -43 -36 3 -51 18 -35 37 7 9 8 16 2 20 -5 4 -16 -3 -25
-15 -14 -21 -17 -21 -52 -7 -21 9 -40 21 -42 28 -4 11 132 150 147 150 3 0 24
-28 45 -62z m687 -79 c9 -14 22 -110 15 -116 -2 -2 -26 7 -53 20 -59 30 -144
59 -243 83 l-75 19 95 6 c125 8 252 2 261 -12z m-612 -23 c10 -11 6 -17 -19
-29 -31 -16 -37 -9 -20 24 13 23 23 24 39 5z m862 -35 c47 -16 98 -35 113 -43
l28 -15 -53 -35 c-30 -19 -64 -40 -76 -47 -24 -12 -24 -13 -59 56 -12 23 -32
58 -44 78 -27 44 -21 44 91 6z m-806 -31 c16 -16 26 -32 23 -35 -6 -6 -116 20
-125 29 -5 5 52 34 68 36 3 0 18 -13 34 -30z m-325 -17 c22 -20 40 -39 40 -43
0 -4 -37 -31 -81 -59 -81 -52 -82 -52 -76 -24 7 34 64 163 72 163 3 0 24 -16
45 -37z m2618 -108 c126 -147 152 -189 152 -248 0 -44 -30 -103 -69 -135 -45
-37 -102 -54 -159 -47 l-57 6 -55 -136 c-29 -75 -58 -139 -63 -142 -10 -6 -96
85 -117 123 -10 17 -4 37 40 127 53 109 60 151 29 170 -13 8 -34 -5 -100 -61
-46 -40 -91 -72 -100 -72 -17 0 -109 107 -109 127 0 7 19 28 43 47 23 19 94
78 157 131 63 53 149 124 190 158 41 34 77 65 79 70 9 22 44 -8 139 -118z
m-1219 40 c37 -20 104 -65 149 -100 70 -56 82 -69 82 -95 0 -30 14 -41 23 -17
8 17 27 -11 27 -40 0 -13 5 -23 10 -23 6 0 10 5 10 11 0 5 5 7 10 4 6 -4 8
-15 5 -26 -5 -15 -2 -18 15 -17 32 4 94 -114 126 -238 29 -113 45 -334 26
-357 -6 -7 -9 -23 -6 -34 7 -27 -27 -161 -61 -236 -62 -141 -159 -255 -291
-343 -45 -30 -84 -54 -88 -54 -3 0 12 23 34 51 22 28 47 72 57 99 11 31 25 51
38 55 20 6 20 6 -2 22 -13 8 -23 21 -23 27 0 6 -7 23 -14 39 -8 15 -13 27 -12
27 2 0 29 -12 60 -26 31 -14 60 -22 66 -19 15 9 2 25 -20 25 -16 0 -52 16
-102 46 -10 6 2 34 14 34 5 0 29 -13 53 -30 70 -48 74 -44 50 55 -22 89 -21
90 29 61 27 -16 47 -22 51 -16 3 6 -2 14 -12 18 -10 4 -34 18 -54 30 -34 21
-37 27 -43 84 -3 34 -4 63 -2 66 3 2 30 -17 61 -43 57 -49 67 -47 39 8 -16 30
-74 194 -74 208 0 4 25 -6 56 -23 30 -17 57 -28 60 -25 3 2 -14 33 -36 68 -23
35 -62 106 -87 158 -25 52 -63 121 -84 153 -27 40 -36 60 -27 62 7 2 36 9 63
16 97 23 91 20 64 41 -13 10 -28 19 -32 19 -5 0 -52 25 -104 55 -53 30 -100
55 -104 55 -15 0 -10 10 19 35 29 26 18 35 -14 10 -24 -18 -52 -19 -95 -1 -19
7 -42 16 -51 19 -15 5 -13 13 17 63 19 32 35 61 35 66 0 15 22 8 89 -27z
m-1275 -39 l49 -43 -74 -23 c-98 -29 -169 -66 -266 -138 -44 -33 -99 -72 -122
-87 -22 -15 -41 -32 -41 -38 0 -12 102 -1 180 19 75 19 76 19 42 -20 -16 -19
-45 -56 -63 -83 -18 -26 -66 -90 -106 -140 -40 -51 -73 -97 -73 -103 0 -6 29
5 65 24 49 26 65 31 65 20 0 -19 -60 -165 -100 -245 -47 -92 -42 -96 43 -45
31 19 57 32 57 29 0 -2 -21 -70 -46 -150 -25 -79 -44 -147 -41 -150 3 -3 27 7
53 21 26 14 49 24 51 22 2 -2 -3 -20 -11 -40 -19 -45 -9 -46 56 -5 28 16 53
28 55 25 3 -3 -3 -27 -14 -53 -17 -43 -25 -50 -66 -64 -26 -8 -50 -19 -54 -22
-10 -11 43 -8 73 3 31 12 29 13 38 -24 6 -23 4 -27 -8 -23 -9 4 -16 2 -16 -3
0 -5 -7 -7 -15 -4 -20 8 -18 -6 4 -33 22 -26 36 -30 27 -8 -3 9 0 15 8 15 7 0
21 -18 31 -41 36 -80 138 -139 239 -139 24 0 53 -8 71 -20 36 -24 27 -25 -62
-5 -163 34 -262 95 -415 253 -101 106 -154 186 -184 285 -15 47 -16 62 -6 78
10 16 10 19 -3 19 -24 0 -17 28 8 32 28 4 25 21 -5 28 -18 5 -24 14 -26 45 -6
62 16 244 38 324 36 130 112 260 145 247 17 -6 30 10 15 19 -17 10 -11 25 10
25 12 0 17 5 14 13 -8 22 286 248 321 247 5 -1 32 -20 59 -44z m-1079 -26 c45
-1 48 -13 17 -91 l-30 -74 -51 0 c-57 0 -85 -20 -100 -71 -20 -70 37 -147 150
-204 106 -54 173 -49 203 15 21 44 20 63 -5 104 l-21 34 56 56 c46 46 59 54
74 45 27 -16 72 -113 72 -155 0 -99 -85 -232 -180 -282 -51 -27 -62 -29 -141
-25 -72 3 -96 9 -160 40 -171 82 -241 221 -198 391 30 122 177 240 274 221 11
-2 29 -4 40 -4z m1645 -166 c61 -125 119 -297 150 -444 33 -154 36 -158 45
-47 10 134 -13 353 -51 485 -3 12 -4 22 -1 22 8 0 80 -117 117 -190 48 -94
141 -330 135 -341 -3 -4 -44 -29 -90 -54 -77 -42 -108 -65 -89 -65 4 0 44 20
90 45 45 25 87 45 92 45 6 0 15 -12 20 -27 l10 -28 2 28 c2 15 3 32 4 38 0 6
9 16 19 23 22 17 22 24 0 22 -14 -1 -19 10 -24 54 -3 30 -9 75 -13 100 -5 40
-3 35 24 -34 17 -44 43 -119 57 -168 15 -48 30 -88 35 -88 20 0 2 272 -27 395
-8 34 36 -66 61 -140 30 -87 60 -249 70 -377 4 -54 10 -98 14 -98 12 0 40 104
55 205 8 54 17 100 20 103 3 3 5 -44 5 -104 0 -96 -5 -131 -46 -293 -51 -206
-87 -321 -114 -366 -43 -70 -209 -162 -405 -225 -81 -26 -109 -30 -149 -25
-76 10 -250 71 -363 127 -191 95 -208 120 -288 442 -34 134 -37 158 -32 235 6
94 34 231 47 231 5 0 6 -33 3 -73 -6 -76 13 -307 25 -319 4 -4 15 31 24 80 26
135 99 344 194 558 48 107 89 192 92 190 2 -3 -1 -20 -7 -38 -15 -48 -31 -199
-31 -306 0 -90 -1 -92 -20 -82 -14 7 -20 8 -20 0 0 -6 11 -15 24 -21 13 -6 27
-21 30 -33 4 -15 8 -17 14 -9 6 9 31 0 95 -33 48 -25 87 -41 87 -35 0 5 -39
30 -87 56 -49 26 -89 49 -91 50 -7 6 29 172 52 245 51 159 155 390 176 390 5
0 32 -48 60 -106z m1296 -396 c248 -256 405 -631 423 -1013 11 -231 -13 -422
-78 -622 -55 -169 -158 -365 -233 -445 -24 -24 -33 -23 -46 7 -12 25 -27 30
-56 19 -14 -5 -13 -9 4 -34 32 -45 70 -133 70 -163 0 -43 -24 -81 -82 -129
-73 -61 -103 -78 -135 -78 -15 0 -41 -9 -58 -20 -38 -25 -90 -25 -143 0 -46
23 -72 62 -72 112 -1 22 -11 45 -30 68 -42 48 -40 92 5 149 37 47 43 61 23 61
-7 0 -28 -24 -45 -53 -41 -65 -43 -110 -7 -162 14 -21 28 -55 31 -74 8 -52 29
-87 63 -108 16 -9 30 -21 30 -25 0 -13 -136 -88 -231 -127 -122 -50 -139 -55
-139 -42 0 6 6 11 13 11 7 0 28 11 46 24 18 14 40 22 49 19 13 -5 14 0 9 33
-4 21 -10 50 -14 63 -4 16 -3 22 5 17 14 -9 18 33 11 119 -3 39 -2 74 3 79 4
6 8 17 8 25 0 13 -2 13 -9 2 -10 -15 -23 83 -27 204 -6 151 -5 143 -13 115 -7
-22 -8 -20 -15 20 -4 25 -9 57 -12 73 -3 16 -1 27 5 27 6 0 11 15 10 33 0 27
-2 29 -9 12 -7 -17 -9 -14 -10 15 -1 19 -3 47 -4 63 -1 15 3 27 9 27 5 0 4 4
-3 8 -8 6 -10 16 -5 30 l9 22 45 -28 c75 -48 136 -141 175 -267 10 -33 24 -64
31 -68 7 -4 13 -15 13 -22 0 -8 2 -15 4 -15 2 0 13 -3 23 -6 16 -6 16 -5 -2 9
-28 22 -6 43 53 51 26 4 80 16 120 27 86 23 82 22 82 6 0 -14 50 -67 63 -67
18 0 4 28 -18 38 -44 20 -30 35 25 29 29 -4 50 -2 50 3 0 6 -6 10 -13 10 -15
0 -67 47 -67 61 0 6 -4 7 -10 4 -5 -3 -10 0 -10 8 0 8 -13 39 -30 70 -16 31
-30 66 -30 77 0 11 -4 20 -10 20 -5 0 -10 9 -10 19 0 11 -5 23 -12 27 -8 5 -9
2 -5 -10 4 -9 3 -15 -2 -11 -5 3 -13 19 -16 36 -7 32 -47 98 -62 102 -4 1 -7
8 -7 15 1 6 -3 12 -8 12 -12 0 -39 27 -38 37 1 4 -4 9 -11 12 -7 2 -9 -1 -5
-8 12 -18 0 -12 -20 11 -10 12 -13 18 -6 14 6 -4 12 -3 12 2 0 13 -24 32 -48
37 -11 2 -40 19 -66 38 -25 20 -55 38 -66 42 -11 3 -20 11 -20 16 0 6 -4 8 -9
5 -12 -8 -102 39 -93 49 4 4 -3 5 -16 2 -12 -3 -20 -1 -17 3 3 5 -10 12 -30
16 -19 3 -35 11 -35 18 0 6 -5 4 -10 -4 -6 -10 -10 -11 -10 -3 0 7 -20 22 -44
33 -49 24 -93 66 -98 95 -3 17 10 23 104 47 203 53 314 105 432 205 131 109
219 249 262 416 22 85 39 179 34 193 -1 4 4 10 11 15 9 5 10 11 2 21 -6 7 -9
48 -7 96 2 52 -1 82 -8 82 -5 0 -7 8 -4 17 4 9 1 20 -5 24 -9 5 -8 11 2 23 8
8 16 15 19 16 3 0 33 -28 66 -62z m-2477 -94 c-24 -224 17 -404 126 -550 57
-76 223 -231 295 -274 78 -46 191 -85 293 -99 84 -12 252 -83 210 -89 -13 -2
-23 -7 -23 -12 0 -5 -33 -19 -74 -31 -60 -17 -76 -26 -80 -45 -4 -16 -20 -27
-58 -40 -193 -63 -408 -227 -526 -401 -45 -67 -132 -236 -132 -257 0 -8 -22
-41 -48 -73 -27 -32 -60 -75 -74 -96 l-25 -37 -42 61 c-110 165 -206 399 -253
619 -32 155 -33 458 0 615 47 227 138 446 259 626 56 83 154 202 161 195 1 -2
-2 -53 -9 -112z m-867 30 c14 -9 9 -30 -37 -135 -25 -57 -45 -109 -45 -115 0
-14 111 -57 121 -47 4 4 25 55 47 113 22 57 45 106 51 108 11 4 121 -36 121
-43 0 -2 -20 -54 -45 -116 -25 -62 -45 -116 -45 -119 0 -6 25 -17 163 -70 31
-12 57 -26 57 -29 0 -16 -53 -137 -65 -150 -16 -16 -52 -3 -461 164 -47 19
-90 35 -96 35 -6 0 -19 7 -29 16 -16 14 -16 19 -3 57 30 86 137 352 146 364 7
9 22 7 61 -8 28 -11 55 -23 59 -25z m4393 14 c2 -7 16 -57 30 -111 l27 -98
-24 -22 c-14 -12 -61 -54 -104 -93 -44 -39 -112 -100 -152 -135 -41 -35 -70
-65 -65 -66 5 -2 94 22 197 52 104 31 194 54 201 51 14 -5 50 -127 43 -146 -5
-16 -603 -188 -614 -177 -3 3 -19 51 -36 108 l-31 102 49 46 c27 26 106 98
177 160 70 63 126 115 125 117 -2 1 -91 -24 -198 -56 -107 -33 -198 -60 -202
-60 -10 0 -50 135 -46 156 3 15 52 32 273 91 149 40 281 77 295 82 36 13 50
13 55 -1z m-3000 -539 c9 -27 1 -33 -25 -19 -24 13 -70 0 -70 -20 0 -13 13
-13 28 2 9 9 18 9 37 0 l26 -12 -20 -26 c-33 -42 -26 -64 8 -24 l29 35 11 -28
c15 -38 14 -52 -4 -67 -8 -7 -15 -25 -15 -41 0 -22 7 -32 34 -46 28 -15 86
-81 86 -98 0 -12 -65 -3 -114 16 -71 26 -118 79 -140 158 -20 72 -20 104 0
142 17 33 43 47 91 48 24 1 33 -4 38 -20z m1444 -29 c24 -12 53 -86 46 -114
-26 -93 -84 -174 -147 -204 -46 -22 -136 -34 -129 -17 16 35 60 86 84 96 42
18 57 45 45 80 -8 23 -6 35 7 56 l18 27 18 -22 c21 -27 35 -13 14 14 -23 30
-18 37 21 31 25 -4 34 -2 31 6 -2 7 -18 13 -35 15 -31 3 -58 -15 -80 -54 -6
-10 -13 -16 -17 -12 -9 9 15 91 29 100 16 11 74 10 95 -2z m-1387 -175 c6 -29
-9 -33 -28 -8 -8 13 -9 22 -2 30 14 17 25 9 30 -22z m1268 0 c0 -14 -9 -29
-21 -35 -29 -16 -32 -9 -14 34 17 40 35 40 35 1z m-51 -196 c-19 -12 -149 -42
-155 -36 -3 2 9 13 27 23 31 19 157 31 128 13z m-665 -174 c63 -19 121 -19
178 1 44 14 48 14 86 -5 29 -15 41 -28 44 -48 6 -48 -1 -63 -32 -63 -16 0 -32
-5 -36 -11 -4 -8 3 -9 24 -4 16 3 32 2 35 -2 10 -16 -41 -125 -82 -173 l-40
-47 6 -132 6 -131 -33 7 c-40 7 -35 -9 8 -26 27 -11 30 -18 36 -73 3 -34 6
-74 6 -90 0 -28 -2 -29 -30 -23 -16 4 -30 3 -30 -2 0 -5 14 -17 30 -26 25 -15
30 -25 30 -55 0 -20 3 -54 7 -76 l6 -38 -42 7 c-53 9 -54 -8 0 -24 23 -7 39
-17 36 -24 -3 -9 -43 -12 -138 -12 -127 0 -134 1 -134 20 0 15 13 24 53 39 59
21 58 42 -2 25 -21 -6 -40 -8 -42 -6 -3 2 -2 35 2 72 l7 67 44 20 c68 30 49
52 -21 23 -17 -8 -18 -4 -12 51 13 114 16 122 47 134 36 15 38 34 4 28 -23 -5
-25 -2 -24 31 0 20 4 72 9 116 9 79 8 81 -22 130 -44 71 -85 146 -93 173 -5
18 -2 22 15 22 26 0 57 -15 88 -43 13 -12 22 -15 22 -8 0 22 -52 60 -94 68
-36 8 -41 12 -44 39 -2 25 1 33 17 37 13 3 21 13 21 26 0 25 17 26 84 6z
m-398 -147 c-4 -35 -15 -99 -24 -143 -14 -66 -21 -81 -42 -91 -14 -7 -47 -23
-74 -36 -71 -34 -155 -121 -199 -205 -58 -111 -104 -273 -79 -273 34 0 68
-122 51 -183 -5 -19 -21 -42 -35 -52 -20 -13 -24 -22 -19 -43 5 -23 -1 -34
-35 -67 -36 -35 -47 -40 -85 -39 -24 0 -58 10 -79 22 -20 12 -53 26 -74 32
-43 11 -94 48 -132 94 -21 25 -25 41 -25 91 1 71 33 139 106 219 25 28 53 74
64 101 81 222 248 423 448 539 65 38 198 96 221 96 17 0 18 -6 12 -62z m1144
-11 c108 -49 228 -145 312 -250 21 -27 38 -55 38 -62 0 -27 -139 -93 -212
-100 -35 -3 -43 1 -91 48 -40 41 -117 90 -175 113 -1 1 -7 49 -12 107 -5 58
-12 128 -16 156 l-7 51 54 -19 c30 -10 79 -30 109 -44z m-823 -235 c7 -31 -7
-56 -36 -60 -48 -7 -70 53 -30 81 28 20 58 10 66 -21z m1193 -46 c0 -6 -7 -1
-15 10 -8 10 -15 23 -15 28 0 6 7 1 15 -10 8 -10 15 -23 15 -28z m-2747 -92
c32 -63 57 -121 55 -128 -2 -7 -72 -71 -155 -141 -84 -70 -153 -131 -153 -136
0 -5 12 -6 28 -3 143 28 394 59 401 50 10 -13 86 -175 95 -203 4 -12 1 -25 -6
-30 -16 -13 -525 -257 -556 -267 -20 -7 -26 -1 -52 58 -17 36 -30 72 -30 81 0
9 40 34 103 64 239 114 297 143 297 148 0 6 -64 -2 -145 -17 -118 -23 -316
-50 -325 -45 -5 3 -23 31 -41 62 l-32 56 45 41 c208 189 317 290 314 293 -2 2
-94 -41 -205 -96 -110 -56 -204 -101 -209 -101 -4 0 -24 33 -44 74 -29 59 -34
77 -24 85 21 17 550 270 566 271 10 0 37 -43 73 -116z m1147 61 c-18 -33 -30
-70 -30 -92 0 -54 -46 -268 -98 -453 -59 -214 -61 -233 -29 -255 l25 -16 -28
-70 c-22 -54 -26 -69 -14 -69 8 0 14 -5 14 -11 0 -12 -55 18 -167 90 l-72 46
50 47 c27 26 49 55 49 67 0 11 11 37 25 57 14 20 26 46 26 58 3 46 -4 112 -13
123 -5 6 -8 20 -6 30 2 10 -1 17 -7 16 -6 -1 -10 32 -10 81 0 75 3 89 38 160
45 90 133 186 198 215 24 11 47 17 51 15 4 -3 8 0 8 5 0 6 4 11 10 11 5 0 -4
-25 -20 -55z m2457 -123 c26 -16 120 -73 208 -127 88 -54 186 -114 218 -133
33 -20 61 -41 64 -48 5 -15 -92 -180 -110 -186 -7 -2 -115 5 -242 17 -126 12
-231 20 -233 19 -3 -2 108 -72 184 -116 109 -63 174 -104 174 -110 0 -12 -82
-138 -90 -138 -12 0 -81 42 -275 166 -99 63 -199 127 -222 142 -24 15 -43 31
-43 36 0 4 24 48 53 97 47 81 55 89 83 89 26 0 203 -15 398 -35 27 -2 45 -1
40 4 -12 10 -293 185 -322 200 -14 8 -21 18 -18 27 8 21 75 124 80 124 3 0 27
-13 53 -28z m-2103 -123 c21 -30 2 -69 -34 -69 -31 0 -50 17 -50 45 0 46 57
62 84 24z m853 -181 c-3 -7 -5 -2 -5 12 0 14 2 19 5 13 2 -7 2 -19 0 -25z
m-901 -136 c33 -23 12 -82 -30 -82 -28 0 -46 18 -46 45 0 37 44 59 76 37z
m282 -114 c20 -20 14 -56 -13 -74 -24 -16 -27 -16 -45 1 -36 32 -20 85 25 85
12 0 26 -5 33 -12z m1458 -84 l38 -46 -49 -41 c-27 -23 -74 -65 -103 -92 l-54
-50 39 -44 c33 -38 41 -42 53 -30 65 61 169 149 178 149 15 0 83 -82 80 -95
-2 -7 -42 -47 -90 -89 -49 -43 -88 -81 -88 -85 0 -4 19 -26 43 -49 l42 -41 35
32 c19 18 65 58 102 90 l67 58 40 -43 c23 -23 41 -47 41 -54 0 -6 -21 -29 -47
-50 -27 -21 -50 -41 -53 -44 -3 -3 -39 -34 -80 -70 -41 -36 -84 -73 -95 -84
-11 -10 -31 -25 -44 -34 -23 -15 -25 -14 -65 29 -22 24 -70 78 -106 119 -36
41 -85 97 -110 125 -95 104 -160 183 -160 193 0 6 41 46 92 89 50 43 123 106
162 140 39 34 76 63 83 63 6 0 29 -21 49 -46z m-2766 -33 l64 -58 -80 -94
c-190 -224 -214 -257 -214 -304 0 -38 5 -47 33 -69 38 -29 77 -33 111 -11 12
8 47 45 77 83 30 37 60 73 67 81 7 8 45 54 84 102 39 49 74 89 77 89 3 0 35
-27 71 -59 l64 -58 -57 -69 c-31 -38 -71 -85 -88 -104 -17 -19 -53 -63 -81
-96 -110 -136 -221 -175 -335 -119 -67 34 -187 159 -196 205 -23 112 2 167
154 344 61 72 122 145 136 163 14 18 30 33 37 33 6 0 40 -27 76 -59z m139
-120 c24 -21 41 -43 37 -49 -7 -12 -130 -82 -144 -82 -5 0 2 38 16 85 14 47
30 85 36 85 6 0 31 -18 55 -39z m2171 -235 c21 -46 80 -168 130 -272 50 -103
92 -197 93 -208 2 -17 -12 -28 -67 -54 -38 -18 -75 -31 -82 -28 -7 3 -36 55
-65 115 -30 61 -58 111 -64 111 -26 0 -175 -83 -175 -97 0 -8 23 -60 50 -114
28 -54 50 -106 50 -115 0 -9 -28 -28 -76 -50 -41 -19 -77 -34 -80 -34 -2 0
-31 57 -65 128 -33 70 -94 197 -135 282 -41 86 -74 161 -74 168 0 13 140 82
153 75 4 -2 28 -48 54 -101 26 -53 48 -99 49 -100 1 -2 45 17 98 42 l95 46
-33 73 c-18 39 -41 89 -51 109 -10 21 -17 40 -14 42 2 2 31 17 64 34 94 48
100 46 145 -52z m-1032 7 c-10 -2 -26 -2 -35 0 -10 3 -2 5 17 5 19 0 27 -2 18
-5z m-693 -47 c68 -23 101 -39 106 -52 4 -11 14 -75 23 -144 38 -300 40 -311
48 -296 5 8 35 93 68 187 32 95 63 176 68 181 5 5 37 -1 75 -14 81 -26 81 -27
33 -159 -19 -52 -55 -157 -81 -234 -71 -211 -85 -245 -99 -245 -8 0 -56 15
-107 34 l-94 34 -29 241 c-17 135 -33 235 -38 228 -4 -6 -36 -96 -70 -199 -34
-104 -67 -188 -73 -188 -17 0 -139 40 -148 49 -4 4 4 38 18 77 14 38 41 112
59 164 19 52 54 151 80 220 26 69 49 131 51 138 6 15 -5 17 110 -22z m970
-147 c39 -18 93 -72 119 -117 5 -8 -13 -22 -56 -42 -35 -17 -69 -30 -77 -30
-8 0 -29 16 -47 35 -49 54 -118 44 -151 -24 -40 -82 -8 -272 54 -321 72 -57
153 -28 167 58 l6 42 54 0 c29 0 68 -3 86 -6 32 -7 32 -7 26 -52 -3 -25 -18
-65 -31 -89 -68 -115 -288 -156 -421 -78 -130 76 -199 313 -132 456 39 85 116
151 208 180 52 16 149 10 195 -12z"/>
<path d="M2222 5348 c-46 -24 -48 -34 -10 -96 l20 -32 31 17 c53 29 67 45 67
73 0 28 -27 60 -51 60 -8 0 -33 -10 -57 -22z"/>
<path d="M2920 5260 c0 -5 7 -10 15 -10 8 0 15 5 15 10 0 6 -7 10 -15 10 -8 0
-15 -4 -15 -10z"/>
<path d="M3230 5240 c0 -5 9 -10 19 -10 11 0 23 5 26 10 4 6 -5 10 -19 10 -14
0 -26 -4 -26 -10z"/>
<path d="M3560 5221 c0 -10 36 -21 44 -14 3 3 3 10 0 14 -7 12 -44 12 -44 0z"/>
<path d="M2927 5214 c-4 -4 -4 -10 -1 -15 6 -10 34 0 34 12 0 10 -24 12 -33 3z"/>
<path d="M3574 5169 c-5 -9 2 -13 44 -22 33 -8 22 15 -11 24 -15 4 -29 3 -33
-2z"/>
<path d="M3742 5173 c24 -49 32 -63 40 -63 13 0 10 18 -8 45 -14 22 -41 37
-32 18z"/>
<path d="M3865 5100 c3 -5 10 -10 16 -10 5 0 9 5 9 10 0 6 -7 10 -16 10 -8 0
-12 -4 -9 -10z"/>
<path d="M3860 5072 c0 -5 12 -13 28 -19 25 -10 25 -11 5 -12 -25 -1 -32 -21
-8 -21 8 0 24 -5 35 -12 10 -7 23 -9 27 -4 4 4 0 12 -10 17 -9 6 -15 14 -12
19 3 5 -5 16 -17 24 -24 17 -48 21 -48 8z"/>
<path d="M2515 5150 c3 -5 15 -10 26 -10 10 0 19 5 19 10 0 6 -12 10 -26 10
-14 0 -23 -4 -19 -10z"/>
<path d="M2443 5033 c-18 -6 -16 -23 1 -23 17 0 30 16 19 23 -5 2 -14 2 -20 0z"/>
<path d="M2428 4988 c-25 -9 -39 -28 -21 -28 16 0 73 25 73 32 0 10 -18 9 -52
-4z"/>
<path d="M4951 4804 c-22 -20 -41 -41 -41 -48 0 -22 75 -86 101 -86 30 0 59
28 59 57 0 19 -48 94 -68 107 -5 3 -28 -11 -51 -30z"/>
<path d="M4200 4588 c0 -8 9 -23 20 -33 16 -15 20 -15 20 -3 0 8 -9 23 -20 33
-16 15 -20 15 -20 3z"/>
<path d="M4160 4546 c0 -7 7 -19 15 -26 16 -13 20 -3 9 24 -8 20 -24 21 -24 2z"/>
<path d="M4295 4350 c-4 -6 -2 -17 4 -23 6 -6 11 -19 11 -29 0 -10 5 -18 10
-18 14 0 12 30 -4 59 -9 17 -15 20 -21 11z"/>
<path d="M4240 4321 c0 -11 5 -23 10 -26 6 -4 10 5 10 19 0 14 -4 26 -10 26
-5 0 -10 -9 -10 -19z"/>
<path d="M4317 4204 c-3 -5 -2 -25 2 -44 6 -30 8 -32 14 -14 8 23 -6 73 -16
58z"/>
<path d="M4270 4185 c0 -8 5 -15 10 -15 6 0 10 7 10 15 0 8 -4 15 -10 15 -5 0
-10 -7 -10 -15z"/>
<path d="M4290 3940 c-6 -12 -10 -29 -8 -38 3 -13 8 -9 21 15 10 18 13 34 7
38 -5 3 -14 -4 -20 -15z"/>
<path d="M4195 3941 c-3 -5 -1 -12 5 -16 5 -3 10 1 10 9 0 18 -6 21 -15 7z"/>
<path d="M4237 3925 c-4 -8 -2 -17 3 -20 6 -4 10 -4 10 -1 0 2 3 11 6 20 3 9
2 16 -4 16 -5 0 -12 -7 -15 -15z"/>
<path d="M4221 3776 c-8 -9 -11 -19 -7 -23 9 -9 29 13 24 27 -2 8 -8 7 -17 -4z"/>
<path d="M4046 3555 c-23 -17 -13 -34 11 -19 19 12 29 34 16 34 -4 0 -17 -7
-27 -15z"/>
<path d="M2091 4486 c-7 -8 -11 -27 -9 -43 4 -28 4 -28 21 11 9 21 17 40 17
42 0 9 -19 3 -29 -10z"/>
<path d="M2127 4483 c-11 -10 -8 -43 3 -43 6 0 10 4 10 9 0 5 3 16 6 25 6 16
-7 22 -19 9z"/>
<path d="M2170 4465 c0 -8 5 -15 10 -15 6 0 10 7 10 15 0 8 -4 15 -10 15 -5 0
-10 -7 -10 -15z"/>
<path d="M2046 4334 c-4 -10 -2 -22 3 -27 7 -7 13 -5 17 7 4 10 2 22 -3 27 -7
7 -13 5 -17 -7z"/>
<path d="M2160 3920 c0 -5 5 -10 10 -10 6 0 10 5 10 10 0 6 -4 10 -10 10 -5 0
-10 -4 -10 -10z"/>
<path d="M2090 3896 c0 -13 8 -30 17 -37 15 -13 16 -11 10 11 -4 14 -7 31 -7
38 0 6 -4 12 -10 12 -5 0 -10 -11 -10 -24z"/>
<path d="M2132 3909 c2 -7 10 -15 17 -17 8 -3 12 1 9 9 -2 7 -10 15 -17 17 -8
3 -12 -1 -9 -9z"/>
<path d="M2765 4136 c-45 -20 -94 -64 -115 -105 -24 -48 -36 -111 -21 -111 6
0 11 10 11 23 0 27 35 105 58 130 83 92 257 71 327 -39 30 -47 42 -53 26 -13
-37 97 -188 158 -286 115z"/>
<path d="M3500 4118 c-57 -16 -140 -94 -140 -133 0 -16 18 -1 32 28 9 18 35
46 58 62 39 27 51 30 120 30 68 0 81 -3 118 -29 46 -32 92 -111 92 -160 0 -16
3 -26 7 -22 12 12 2 78 -18 117 -47 93 -161 138 -269 107z"/>
<path d="M2847 3972 c-34 -37 -15 -82 33 -82 51 0 69 55 28 84 -29 21 -41 20
-61 -2z"/>
<path d="M3490 3961 c-16 -31 -12 -49 15 -67 23 -15 27 -15 50 0 27 18 33 54
13 74 -19 19 -66 15 -78 -7z"/>
<path d="M2685 3770 c10 -11 42 -32 72 -46 46 -23 61 -26 110 -20 50 6 131 41
120 52 -2 2 -26 -5 -52 -17 -69 -31 -152 -23 -205 20 -44 35 -73 42 -45 11z"/>
<path d="M3159 3765 c-7 -16 -21 -42 -31 -56 -17 -25 -17 -27 0 -41 9 -9 27
-19 38 -22 21 -6 22 -4 17 61 -6 89 -8 93 -24 58z"/>
<path d="M3420 3762 c0 -13 72 -50 112 -57 47 -9 132 9 170 36 43 31 28 33
-30 4 -33 -17 -66 -25 -100 -25 -49 0 -115 21 -127 40 -7 12 -25 13 -25 2z"/>
<path d="M3718 3704 c-16 -15 -147 -21 -250 -11 -75 7 -94 -7 -23 -17 33 -5
45 -12 45 -24 1 -15 2 -15 15 2 12 16 25 18 94 15 45 -3 81 -1 81 3 0 5 8 8
18 8 24 0 64 29 41 30 -9 0 -18 -3 -21 -6z"/>
<path d="M3212 3669 c2 -6 8 -10 13 -10 5 0 11 4 13 10 2 6 -4 11 -13 11 -9 0
-15 -5 -13 -11z"/>
<path d="M2692 3597 c17 -205 219 -337 517 -337 280 0 483 135 499 333 2 31 0
57 -5 57 -5 0 -33 -9 -63 -19 -74 -26 -185 -35 -440 -35 -233 1 -346 12 -436
44 -32 11 -62 20 -68 20 -5 0 -7 -27 -4 -63z m119 7 c212 -40 718 -33 862 12
14 4 17 -1 17 -28 -1 -44 -33 -115 -57 -121 -71 -20 -73 -19 -73 13 0 18 -4
29 -10 25 -5 -3 -10 -17 -10 -29 0 -20 -6 -24 -46 -30 -85 -11 -92 -9 -97 27
l-3 32 -8 -31 c-7 -28 -13 -32 -53 -38 -156 -21 -570 17 -594 56 -24 35 -34
128 -14 128 1 0 40 -7 86 -16z m81 -171 c66 -12 152 -17 290 -17 151 -1 198
-4 198 -13 0 -7 5 -13 10 -13 6 0 10 6 10 14 0 25 140 38 140 14 0 -7 5 -5 11
5 6 10 22 17 41 17 l32 0 -35 -36 c-77 -80 -216 -124 -389 -124 -183 0 -309
42 -396 131 -45 46 -43 46 88 22z"/>
<path d="M3832 2430 c0 -14 2 -19 5 -12 2 6 2 18 0 25 -3 6 -5 1 -5 -13z"/>
<path d="M3861 2224 c0 -11 3 -14 6 -6 3 7 2 16 -1 19 -3 4 -6 -2 -5 -13z"/>
<path d="M4150 2229 c25 -4 61 -7 80 -7 32 0 32 1 -10 9 -25 4 -61 7 -80 7
-32 0 -32 -1 10 -9z"/>
<path d="M4288 2233 c6 -2 18 -2 25 0 6 3 1 5 -13 5 -14 0 -19 -2 -12 -5z"/>
<path d="M3872 2160 c0 -19 2 -27 5 -17 2 9 2 25 0 35 -3 9 -5 1 -5 -18z"/>
<path d="M3881 2094 c0 -11 3 -14 6 -6 3 7 2 16 -1 19 -3 4 -6 -2 -5 -13z"/>
<path d="M3292 3034 c-33 -23 -27 -36 8 -16 16 9 30 20 30 25 0 11 -14 8 -38
-9z"/>
<path d="M3180 2731 c0 -74 13 -126 30 -116 7 4 7 12 0 25 -5 10 -10 50 -10
89 0 41 -4 71 -10 71 -6 0 -10 -30 -10 -69z"/>
<path d="M3176 2443 c7 -42 27 -63 58 -63 19 1 19 2 -6 21 -14 11 -29 33 -33
49 -10 44 -27 37 -19 -7z"/>
<path d="M3171 2278 c-1 -21 4 -38 9 -38 12 0 12 27 0 55 -7 16 -9 13 -9 -17z"/>
</g>
</svg>
